<svg width="20" height="20" viewBox="0 0 20 20" fill="none" xmlns="http://www.w3.org/2000/svg">
<path d="M13.8477 7.93997C14.8645 7.34788 13.777 6.15851 13.2177 5.81327C11.4172 4.70331 8.75883 4.61872 6.85826 5.48183C6.31623 5.72868 5.32365 6.44334 5.72068 7.28919C5.82598 7.51359 6.01414 7.60163 6.1695 7.76562C6.15397 7.74836 5.8467 8.07116 5.63783 8.60975C5.48213 8.98136 5.3664 9.36849 5.29258 9.76459C5.1804 10.4078 5.11978 11.0589 5.11133 11.7118C5.11133 12.4316 5.22181 13.2878 5.80182 13.7832C6.31968 14.2372 7.13791 13.8989 7.71792 13.7677C8.48947 13.5693 9.28274 13.4678 10.0794 13.4656C10.9788 13.4932 11.8591 13.7125 12.755 13.7901C13.354 13.8419 14.212 13.9196 14.5141 13.2257C14.5601 13.1198 14.592 13.0084 14.609 12.8942C14.7811 11.8675 14.8119 10.8221 14.7005 9.78703C14.6332 9.14833 14.4743 8.24379 13.8477 7.93997Z" fill="#FF4C00"/>
<path d="M10 1.49031e-07C8.02212 1.785e-07 6.08865 0.586533 4.44412 1.68542C2.79959 2.78431 1.51787 4.3462 0.761044 6.17356C0.00421836 8.00092 -0.193714 10.0117 0.192278 11.9515C0.57827 13.8914 1.53085 15.6732 2.92955 17.0717C4.32824 18.4701 6.11023 19.4224 8.05016 19.8081C9.99008 20.1937 12.0008 19.9954 13.828 19.2383C15.6553 18.4812 17.2169 17.1992 18.3155 15.5544C19.4141 13.9097 20.0003 11.9762 20 9.99827C20 8.68513 19.7413 7.38486 19.2388 6.1717C18.7362 4.95854 17.9996 3.85626 17.071 2.92782C16.1424 1.99937 15.04 1.26294 13.8267 0.760578C12.6135 0.258219 11.3131 -0.000226567 10 1.49031e-07ZM15.9089 12.0835C15.9002 12.9225 15.8968 13.777 15.7138 14.5969C15.5222 15.46 14.4502 15.3979 13.8149 15.391C12.5945 15.3806 11.3844 15.0854 10.1657 15.0457C9.30261 15.0233 8.4395 15.1838 7.58502 15.2857C6.81167 15.3789 5.96755 15.6309 5.19075 15.5308C4.23788 15.3944 3.96341 14.1498 3.88228 13.3005C3.74073 11.942 3.66132 10.8562 4.14466 9.16623C4.29793 8.64318 4.54924 8.15403 4.88521 7.72484L4.628 7.46245C4.46103 7.29273 4.32854 7.09224 4.23788 6.87209C3.90817 5.98653 4.65907 5.18729 5.30986 4.77818C7.81288 3.20559 11.2705 3.08994 13.8529 4.47091C14.571 4.85586 15.2978 5.43242 15.6033 6.24892C15.8364 6.87209 15.8864 7.73347 15.2287 8.08389C15.1564 8.10398 15.0801 8.10398 15.0078 8.08389C15.574 8.22199 15.7518 8.90212 15.8087 9.43552C15.8858 10.2231 15.9198 11.0143 15.9106 11.8056C15.9106 11.9109 15.9106 11.9903 15.9089 12.0835Z" fill="#FF4C00"/>
</svg>
